<svg width="22" height="23" viewBox="0 0 22 23" fill="none" xmlns="http://www.w3.org/2000/svg">
<path d="M8.5 19.0382C3.84167 20.5549 3.84167 16.3299 2 15.7882M15 21.2049V17.4132C15 16.3299 15.1083 15.8966 14.4583 15.2466C17.4917 14.9216 20.4167 13.7299 20.4167 8.74657C20.4153 7.45195 19.9103 6.20865 19.0083 5.2799C19.4313 4.15537 19.3924 2.90917 18.9 1.81324C18.9 1.81324 17.7083 1.48824 15.1083 3.22157C12.9062 2.64804 10.5938 2.64804 8.39167 3.22157C5.79167 1.48824 4.6 1.81324 4.6 1.81324C4.1076 2.90917 4.06866 4.15537 4.49167 5.2799C3.58974 6.20865 3.08465 7.45195 3.08333 8.74657C3.08333 13.7299 6.00833 14.9216 9.04167 15.2466C8.39167 15.8966 8.39167 16.5466 8.5 17.4132V21.2049" stroke="black" stroke-width="3" stroke-linecap="round" stroke-linejoin="round"/>
</svg>
